<?xml version="1.0" encoding="utf-8"?>
<!-- Generator: Adobe Illustrator 26.5.0, SVG Export Plug-In . SVG Version: 6.00 Build 0)  -->
<svg version="1.1" id="레이어_1" xmlns="http://www.w3.org/2000/svg" xmlns:xlink="http://www.w3.org/1999/xlink" x="0px"
	 y="0px" viewBox="0 0 432.3 112" style="enable-background:new 0 0 432.3 112;" xml:space="preserve">
<style type="text/css">
	.st0{display:none;}
	.st1{display:inline;fill:#C4B3DB;}
	.st2{display:inline;fill:none;}
	.st3{fill:#FFFFFF;}
</style>
<g id="Ebene_1" class="st0">
	<path class="st1" d="M-96,211c0.3,0.3,97.6,1.1,107,0.9c0.9-0.1,1.8-0.7,2.3-2.1c0.5-1.1,1.1-2,1.4-2s0.6-0.3,0.6-0.7
		c0-0.8,2.8-4.9,3.6-5.2c0.3-0.1,0.5-0.6,0.5-1.1c0-0.7,0.6-1.6,3.3-4.8c0.3-0.5,0.5-1,0.3-1.2c-0.3-0.2-0.1-0.4,0.3-0.4
		c0.5,0,0.8-0.5,0.8-1s0.5-1.2,1.1-1.5s1.1-0.9,1.1-1.2c0.1-0.5,3.1-5.6,3.9-6.3c0.2-0.2,0.9-1.4,1.6-2.7c0.7-1.3,1.5-2.5,1.7-2.7
		c0.6-0.5,3.4-4.6,3.4-5c0-0.2,1.9-3.2,4.4-6.7s4.4-6.7,4.4-7.1c0-0.3,0.2-0.7,0.5-0.9c0.5-0.3,3.5-4.4,3.5-4.9
		c0-0.2,0.3-0.7,0.7-1.2c0.3-0.5,2.2-3.2,4.2-6.2c1.9-3,3.6-5.5,3.8-5.7s0.7-1.1,1.3-2.1c0.5-1,1.5-2.5,2.2-3.2s1.2-1.5,1.2-1.7
		c0-0.6,13-20.2,13.6-20.6c0.3-0.2,0.5-0.6,0.3-0.8c-0.1-0.3,0.3-1,0.9-1.7s1.6-2.2,2.4-3.4c0.7-1.2,1.5-2.1,1.8-2.1
		s0.4-0.3,0.1-0.6c-0.2-0.3,0.1-1,0.5-1.5c1.5-1.5,5.2-7.1,5.2-7.9c0-0.4,0.3-0.7,0.7-0.7c0.4,0,0.7-0.5,0.7-1s0.3-1,0.7-1
		c0.4,0,0.7-0.4,0.7-0.9s0.3-1.1,0.5-1.2c0.3-0.1,1.3-1.4,2.1-2.9s1.9-3,2.1-3.4c1-1.2,9.3-13.9,9.3-14.2c0-0.3,4.2-6.5,5.2-7.5
		c0.4-0.5,1-1.5,1.2-2.2s0.7-1.3,1-1.3s0.7-0.5,0.9-1.2c0.4-1.1,1.8-3.6,2.5-4.2c0.2-0.2,2.1-3.2,4.4-6.7c2.1-3.4,4.5-6.9,5.1-7.5
		c0.7-0.7,1.1-1.3,0.9-1.3s0.7-1.5,2-3.4c1.3-1.8,2.4-3.6,2.4-4c0-0.3,0.2-0.7,0.5-0.7s1.2-1.3,2.1-3c0.9-1.7,1.9-3,2.1-3
		c0.3,0,0.5-0.4,0.5-0.9s0.6-1.5,1.3-2.1c0.7-0.7,1.3-1.6,1.3-2.1s0.3-0.9,0.7-0.9s0.7-0.3,0.7-0.7c0-0.7,3.2-5.9,4.5-7.3
		c0.4-0.4,1-1.4,1.2-2.1s0.7-1.3,0.9-1.3c0.3,0,0.9-0.9,1.4-2s1.1-2,1.3-2c0.3,0,0.9-0.9,1.3-2c0.5-1.1,1.1-2,1.3-2
		c0.3,0,0.9-0.9,1.3-2c0.5-1.1,1.1-2,1.5-2s0.4-0.3,0.2-0.7s-0.2-0.7,0.1-0.7s1.4-1.6,2.6-3.4c1.1-1.9,2.2-3.4,2.6-3.4
		c0.3,0,0.4-0.3,0.2-0.6s0.2-1.1,0.9-1.8s1.3-1.6,1.3-1.9c0-0.3,0.7-1.6,1.7-2.6c0.9-1,1.6-1.8,1.4-1.8c-0.3,0,8.9-14.2,10.4-15.9
		c0.3-0.5,0.7-1.1,0.7-1.6c0-0.3,0.3-0.7,0.7-0.7s0.7-0.5,0.7-1s0.3-1,0.7-1s0.7-0.3,0.7-0.7c0-0.4,1.1-2.2,2.4-4s2.4-3.5,2.4-3.7
		s0.6-1,1.3-1.8s1.3-1.9,1.3-2.4s0.3-0.9,0.7-0.9c0.3,0,0.5-0.3,0.3-0.5c-0.2-0.3,0.3-0.9,0.9-1.5s1.1-1.1,1-1.3
		c-0.2-0.3,0.3-1,1-1.7s1.3-1.5,1.3-1.8s2.4-4.1,5.2-8.5c3-4.4,8.3-12.5,11.9-18c3.6-5.6,6.9-10.3,7.3-10.6s0.5-0.5,0.1-0.5
		s-0.1-0.5,0.4-1.2c1-1.2,1.1-1.8,0.2-3.8c-2.9-6.9-5-12.8-5-13.5c0-0.5-0.3-0.9-0.7-0.9c-0.3,0-0.6-0.2-0.5-0.5
		c0.2-0.9-1.8-6.5-2.4-7c-0.4-0.3-0.5-0.7-0.2-0.9s0.2-0.8-0.1-1.2c-0.5-0.7-4-10.6-4.4-12.7c-0.1-0.5-0.4-1.3-0.6-2
		c-0.3-0.6-0.7-1.7-0.9-2.3c-0.2-0.6-0.5-1.6-0.6-2.2c-0.3-1.3-1.6-6-2.4-8.1c-0.3-0.9-0.7-2.3-0.7-3.2c-0.1-0.8-0.3-1.5-0.5-1.5
		c-0.3,0-0.5-0.4-0.5-0.9c0-0.4-0.2-1.4-0.4-2.1c-0.2-0.7-1-3.9-1.7-7.1c-0.7-3.2-1.3-5.8-1.4-5.9c-0.1-0.1-0.2-0.3-0.3-0.7
		c-0.3-1.3-1.3-5.9-1.4-6.5c-0.1-0.4-0.2-0.8-0.3-1c-0.2-0.4-0.5-2.2-0.9-5.4c-0.2-1.3-0.5-2.8-0.7-3.4c-0.3-0.6-0.4-1.3-0.3-1.7
		c0.1-0.3,0-0.7-0.1-0.9c-0.3-0.7-0.7-3.1-0.9-5.4c-0.1-1.3-0.3-2.4-0.4-2.4c-0.1,0-0.6-3.4-0.7-5.9c-0.1-1-0.4-2-0.7-2.2
		s-0.3-0.8,0.1-1.3c1.5-1.8-0.5-1.6-2.1,0.2l0,0c-0.9,1-2.2,3-3,4.4c-0.7,1.5-1.9,3.3-2.7,4.1c-0.7,0.8-1.9,2.6-2.7,4
		c-0.7,1.3-1.8,3-2.4,3.6c-0.5,0.6-1.6,2.2-2.4,3.5c-1.5,2.7-1.7,3-4,5.8c-0.9,1.2-1.7,2.4-1.7,2.6c0,0.5-6.7,10.6-7.3,11.2
		c-0.2,0.2-1,1.4-1.7,2.7s-1.5,2.5-1.7,2.7c-0.5,0.4-8.3,12-8.8,13.1 M243.6-44.2c-0.7,1.1-1.8,2.8-2.4,3.6
		c-0.5,0.8-1.7,2.6-2.5,3.8c-1.9,2.8-2.2,3.4-5.6,8.2c-1.5,2.1-2.7,4-2.7,4.2c0,0.2-0.3,0.7-0.7,1.1c-0.3,0.5-4.2,6.2-8.7,12.9
		c-4.4,6.7-8.3,12.4-8.7,12.9s-0.7,0.9-0.7,1.1c0,0.6-4.3,6.8-4.8,7c-0.3,0.1-0.5,0.7-0.5,1.2s-0.3,0.9-0.7,0.9
		c-0.3,0-0.5,0.3-0.3,0.6c0.3,0.3,0.2,0.7-0.1,0.9c-0.8,0.3-4.9,6.4-4.9,7.2c0,0.3-0.5,1-1.1,1.3c-0.7,0.4-0.9,0.7-0.7,0.7
		s-0.1,0.7-0.9,1.5c-0.7,0.8-1.3,1.9-1.3,2.4s-0.2,0.9-0.5,0.9s-1.4,1.6-2.6,3.4c-1.1,1.9-2.3,3.8-2.7,4.2c-1.3,1.6-3.7,5-3.7,5.4
		c0,0.3-0.4,0.9-0.8,1.3c-1.9,2.1-2.5,2.9-2.2,3.2c0.1,0.1-0.5,1.1-1.3,2.1c-0.9,1.1-1.7,2.1-1.7,2.4s-0.6,1.1-1.3,2s-1.3,2-1.3,2.5
		s-0.3,0.8-0.6,0.6s-0.8,0.3-1,1.3c-0.3,0.9-0.7,1.7-1.1,1.7c-0.4,0-0.7,0.3-0.7,0.7c0,0.8-2.8,4.9-3.5,5.2
		c-0.3,0.1-0.5,0.5-0.5,0.8c0,0.8-4.2,7-4.8,7.3c-0.3,0.1-0.5,0.5-0.5,0.9c0,0.7-4.1,6.8-4.8,7.1c-0.3,0.1-0.5,0.5-0.5,0.9
		c0,0.9-4.9,8-5.6,8c-0.3,0-0.4,0.3-0.1,0.6c0.2,0.3-0.1,1-0.5,1.5c-0.5,0.5-2.6,3.4-4.6,6.6s-3.8,5.9-4,6c-0.4,0.4-2.9,4-3.4,5
		c-1,2-31.3,47.1-31.9,47.5c-0.4,0.3-0.5,0.5-0.1,0.5s0.1,0.7-0.7,1.5c-1.6,1.8-4.8,6.7-4.8,7.5c0,0.3-0.7,1.1-1.6,1.9
		c-0.8,0.7-1.2,1.3-0.9,1.3c0.3,0-0.1,0.7-1,1.7s-1.3,1.7-0.9,1.7s0.3,0.3-0.1,0.5c-0.9,0.7-3.8,4.8-5,7c-0.5,1.1-1.2,1.9-1.6,1.9
		c-0.3,0-0.5,0.3-0.5,0.7c0,0.3-1,2.1-2.2,3.8c-1.3,1.8-2.5,3.8-2.7,4.4c-0.3,0.7-0.7,1.2-1.1,1.2c-0.3,0-0.7,0.5-0.7,1
		s-0.3,1-0.7,1c-0.3,0-0.7,0.3-0.7,0.6c0,0.4-2.3,4-5.1,8.1c-2.8,4.2-4.9,7.7-4.8,7.9c0.3,0.3,33.7,0.7,83.4,0.9
		c22.8,0.1,24.1,0.1,25.2-1.1c1.2-1.5,2.6-3.4,3.2-4.9c0.3-0.5,1-1.6,1.7-2.3c0.6-0.7,1-1.5,0.8-1.9c-0.2-0.3-0.1-0.5,0.3-0.5
		s1.2-1,1.8-2.2c0.6-1.1,1.3-2.3,1.6-2.5c0.2-0.2,1.5-2.1,2.8-4.2c1.2-2.1,2.5-3.8,2.8-3.8s0.5-0.5,0.5-1s0.3-1,0.7-1
		c0.3,0,0.5-0.3,0.3-0.6c-0.3-0.3-0.2-0.7,0.1-0.9c0.8-0.3,3.6-4.4,3.6-5.2c0-0.3,0.3-0.7,0.7-0.7s0.7-0.5,0.7-1s0.3-1,0.5-1
		c0.3,0,0.9-0.7,1.4-1.5c0.4-0.8,1.3-2.4,2.1-3.5c0.7-1.1,1.7-2.7,2.1-3.6c0.5-0.8,1.1-1.5,1.4-1.5c0.3,0,0.5-0.4,0.5-0.9
		s0.5-1.5,1.2-2.2c0.6-0.7,1.5-2.1,2.1-3.1c0.5-1,1.6-2.5,2.4-3.4c0.8-0.8,1.4-1.7,1.3-1.9c-0.1-0.5,6-9.7,6.7-10
		c0.3-0.1,0.5-0.5,0.5-0.9c0-0.5,5.9-9.9,6.7-10.7c0.2-0.2,1.4-2,2.7-4c1.3-2,2.6-3.9,3-4.2c0.3-0.3,0.4-0.5,0.1-0.5
		c-0.3,0-0.1-0.5,0.3-1c2.1-2.3,2.4-2.9,2.1-3.3c-0.3-0.2-0.1-0.4,0.3-0.4c0.5,0,0.8-0.4,0.8-0.9s0.3-1.1,0.5-1.2
		c0.3-0.1,2-2.4,3.6-4.9c1.6-2.6,3.2-4.8,3.4-4.9c0.3-0.1,0.5-0.5,0.5-0.9c0-0.3,1.1-2.1,2.4-4c1.3-1.8,2.4-3.5,2.4-3.8
		c0-0.2,0.4-0.7,0.9-1.3c0.4-0.5,2.9-4.2,5.5-8.2c2.5-4,4.9-7.4,5.2-7.5c0.3-0.1,0.4-0.5,0.1-0.9c-0.2-0.3,0.1-0.8,0.7-1
		s1.1-0.7,1.1-1.1s1.1-2.2,2.4-4s2.4-3.4,2.4-3.5c0-0.3,11.2-17.3,12-18.3c0.3-0.4,1.1-1.8,1.9-3c0.7-1.3,1.7-2.6,2.1-2.9
		s0.8-0.9,0.8-1.2c0-0.4,0.7-1.7,1.7-2.9c0.9-1.2,1.7-2.5,1.7-3s0.3-0.8,0.5-0.8c0.3,0,0.9-0.7,1.3-1.6c0.6-1.3,0.3-2-2-5
		c-1.4-1.9-2.4-3.4-2.1-3.4s0.1-0.3-0.3-0.5c-0.9-0.5-7-9.5-7-10.2c0-0.3-0.6-1-1.3-1.7c-0.7-0.7-1.3-1.6-1.3-2.1s-0.3-0.9-0.7-0.9
		c-0.3,0-0.7-0.4-0.7-0.9s-0.3-1.1-0.5-1.2c-0.5-0.2-6.2-9-6.2-9.6c0-0.2-0.6-1-1.3-1.8c-0.7-0.8-1.3-1.9-1.3-2.4s-0.3-0.9-0.7-0.9
		c-0.3,0-0.7-0.3-0.7-0.6c0-0.4-0.9-2-2-3.6c-1.1-1.7-2-3.4-2-3.8c0-0.4-0.3-0.7-0.6-0.7s-0.7-0.5-0.9-1.2c-0.4-1.1-2.5-4.8-3.2-5.5
		c-0.2-0.2-1.1-1.7-2-3.4c-0.9-1.7-1.8-3.2-2-3.4c-0.3-0.2-0.8-1.1-1.2-2c-0.5-0.9-2.2-4.1-3.9-7.1c-1.8-3-3.3-5.9-3.5-6.6
		c-0.2-0.6-0.6-1.1-0.9-1.1c-0.5,0-2.3-4-2.1-4.9C246.1-47,244.8-46.1,243.6-44.2L243.6-44.2z M328.8,84.8c-0.8,1.1-1.5,2.2-1.4,2.4
		c0,0.3-0.2,0.7-0.5,0.9c-0.9,0.7-8.9,12.7-8.9,13.5c0,0.3-0.2,0.7-0.5,0.7s-1.6,1.8-2.9,4s-2.5,4-2.8,4s-0.5,0.4-0.5,0.9
		s-0.2,1.1-0.5,1.2c-0.7,0.3-4.2,5.7-4.2,6.5c0,0.3-0.5,0.7-1,1c-0.5,0.2-1,0.8-1,1.3s-0.2,1.1-0.5,1.2c-0.3,0.1-1.5,1.9-2.8,3.9
		c-1.3,2-2.5,3.8-2.7,4s-1.1,1.5-2,3s-2,3.1-2.4,3.6c-0.5,0.4-1.1,1.4-1.3,2.1s-0.7,1.3-1.1,1.3s-0.6,0.2-0.3,0.4
		c0.2,0.3,0.1,0.8-0.4,1.3s-1.2,1.4-1.6,2.1c-0.5,0.7-2.2,3.4-3.9,5.9c-1.7,2.5-3,4.9-3,5.2s-0.3,0.6-0.5,0.6c-0.3,0-1,0.8-1.5,1.8
		c-0.5,1.1-1.1,2-1.3,2.2s-3.4,4.8-7,10.4c-3.6,5.5-6.9,10.2-7.1,10.3c-0.3,0.1-0.5,0.5-0.2,0.9c0.2,0.3,0,0.6-0.3,0.6
		c-0.4,0-0.7,0.5-0.7,1c0,0.6-0.5,1.2-1,1.4c-0.5,0.3-0.8,0.7-0.6,1s0,0.6-0.3,0.6c-0.4,0-0.7,0.3-0.7,0.7s-0.5,1.4-1.1,2.3
		c-1.4,1.8-1.4,1.8-8.2,12.1c-3,4.4-5.7,8.5-6.1,8.9c-0.5,0.6,0.4,0.8,4.5,0.9c13.3,0.1,60.6,0.5,80.8,0.6L353,212l1.6-1.9
		c0.9-1.1,1.5-2.2,1.6-2.5c0-0.3,0.6-1.1,1.3-2c0.7-0.8,1.3-1.9,1.3-2.4s0.3-0.9,0.7-0.9c0.3,0,0.5-0.3,0.3-0.5
		c-0.2-0.3,0.3-0.9,0.9-1.5s1.1-1.1,1-1.3c-0.2-0.3,0.3-1,1-1.7s1.3-1.5,1.3-1.9s0.7-1.7,1.7-2.8c0.9-1.2,1.4-2.4,1.2-2.6
		c-0.3-0.2-0.1-0.4,0.3-0.4s2.9-3.5,5.6-7.7s5.5-8.3,6.2-9.1s1.1-1.3,0.9-1.3c-0.5,0,7.7-12.3,8.6-12.9c0.4-0.3,0.5-0.5,0.2-0.5
		s0.1-0.8,0.8-1.8c0.8-1,1.4-2.2,1.4-2.8c0-0.8-3-4.2-11.6-13.1c-1.8-1.8-3.2-3.4-3.2-3.6s-0.7-1-1.5-1.8
		c-1.5-1.5-6.2-6.9-11.4-12.9c-1.3-1.4-2.9-3.2-3.6-4c-1.1-1.1-4.6-5.2-9.4-10.9c-1-1.2-4.2-5-11.4-14
		C329.7,81.7,330.5,82.4,328.8,84.8L328.8,84.8z"/>
	<line class="st2" x1="58.1" y1="307.9" x2="58.1" y2="307.9"/>
</g>
<g>
	<path class="st3" d="M0,37.3l6.2-6.2H63l12.5,12.4v31.2L69.2,81H63V49.8l-6.2-6.3H44.4v31.2L38.1,81h-6.2V43.5H12.4V81H6.2L0,74.7
		V37.3z"/>
	<path class="st3" d="M81.8,43.5L94.2,31h37.5l12.6,12.5v25l-12.5,12.4H94.3L81.8,68.6V43.5z M125.6,43.5h-25l-6.4,6.3v12.4l6.4,6.4
		h25l6.2-6.4V49.8L125.6,43.5z"/>
	<path class="st3" d="M150.6,37.3l6.2-6.2h56.8l12.5,12.4v31.2l-6.3,6.3h-6.2V49.8l-6.2-6.4H195v31.2l-6.3,6.3h-6.2V43.5H163V81
		h-6.2l-6.2-6.3V37.3z"/>
	<path class="st3" d="M244.9,31.1h43.7l6.3,6.2v6.2h-50v6.3h37.5v12.4h-37.5v6.4h50v6.1l-6.3,6.3h-43.7l-12.4-12.4V43.5L244.9,31.1z
		"/>
	<path class="st3" d="M301.2,37.3l6.2-6.2h43.7l12.5,12.4v31.2l-6.3,6.3h-6.2V49.8l-6.1-6.3h-31.3V81h-6.2l-6.2-6.3L301.2,37.3
		L301.2,37.3z"/>
	<path class="st3" d="M426.1,43.5h-18.8V81h-6.2l-6.2-6.3V43.5h-25v-6.3l6.3-6.2h56.1v6.2L426.1,43.5z"/>
</g>
</svg>
